<?xml version="1.0" encoding="utf-8"?>
<!-- Generator: Adobe Illustrator 25.2.3, SVG Export Plug-In . SVG Version: 6.00 Build 0)  -->
<svg version="1.1" id="Layer_1" xmlns="http://www.w3.org/2000/svg" xmlns:xlink="http://www.w3.org/1999/xlink" x="0px" y="0px"
	 viewBox="0 0 283.46 368.5" style="enable-background:new 0 0 283.46 368.5;" xml:space="preserve">
<g>
	<path d="M95.56,143.44c0-10.57-1.75-21.41-1.75-32.12c0-13.21,5.99-20.44,19.44-20.44c2.48,0,5.41,0.42,7.89,0.97l-1.17,6.81
		c-2.05-0.28-4.68-0.56-6.28-0.56c-8.04,0-11.4,4.59-11.4,13.35c0,10.71,1.75,21.55,1.75,32.26c0,9.87-4.82,16.41-12.28,19.05v0.28
		c7.45,2.64,12.28,9.32,12.28,19.19c0,10.71-1.75,21.55-1.75,32.12c0,8.76,3.36,13.49,11.4,13.49c1.61,0,4.24-0.28,6.28-0.56
		l1.17,6.81c-2.48,0.56-5.41,0.83-7.89,0.83c-13.45,0-19.44-7.09-19.44-20.44c0-10.57,1.75-21.41,1.75-32.12
		c0-9.18-4.53-14.46-16.66-15.85v-7.09C91.02,158.03,95.56,152.75,95.56,143.44z"/>
</g>
<g>
	<path d="M204.99,159.43v7.09c-12.13,1.39-16.66,6.67-16.66,15.85c0,10.71,1.75,21.55,1.75,32.12c0,13.35-5.99,20.44-19.44,20.44
		c-2.48,0-5.41-0.28-7.89-0.83l1.17-6.81c2.05,0.28,4.68,0.56,6.28,0.56c8.04,0,11.4-4.73,11.4-13.49c0-10.57-1.75-21.41-1.75-32.12
		c0-9.87,4.82-16.55,12.28-19.19v-0.28c-7.45-2.64-12.28-9.18-12.28-19.05c0-10.71,1.75-21.55,1.75-32.26
		c0-8.76-3.36-13.35-11.4-13.35c-1.61,0-4.24,0.28-6.28,0.56l-1.17-6.81c2.48-0.56,5.41-0.97,7.89-0.97
		c13.45,0,19.44,7.23,19.44,20.44c0,10.71-1.75,21.55-1.75,32.12C188.33,152.75,192.86,158.03,204.99,159.43z"/>
</g>
<g>
	<path d="M170.15,122.94v19.31h-54.87v-9.53h20.12v-9.85c0-13.7,6.86-23.07,17.38-23.07C163.29,99.79,170.15,109.24,170.15,122.94z
		 M143.17,123.34v9.45h19.21v-9.29c0-9.05-3.89-14.02-9.6-14.02C147.06,109.48,143.17,114.37,143.17,123.34z"/>
</g>
<g>
	<path d="M130.52,189.42c-9.22,0-15.24-8.25-15.24-22.67v-20.91h54.87v20.03c0,14.34-5.41,21.55-13.95,21.55
		c-5.72,0-10.14-4.01-12.35-10.9h-0.15C142.79,184.61,137,189.42,130.52,189.42z M162.76,155.21H146.9v9.13
		c0,9.37,3.66,13.38,8.15,13.38c4.57,0,7.7-3.69,7.7-12.26V155.21z M131.2,179.8c5.18,0,8.31-4.81,8.31-14.42v-10.17h-16.84v11.06
		C122.67,175.64,126.33,179.8,131.2,179.8z"/>
</g>
<path d="M113.75,194.92l2.33-1.36c0.24-0.14,0.53-0.18,0.8-0.09c0.27,0.08,0.49,0.27,0.61,0.52c5.1,10.54,11.69,16.56,21.38,19.52
	c9.63,2.94,18.46,1.62,28.63-4.27c0.24-0.14,0.53-0.17,0.79-0.09c0.27,0.08,0.49,0.27,0.61,0.52l1.17,2.43
	c0.22,0.46,0.06,1.01-0.37,1.28c-7.48,4.7-14.41,6.99-21.51,6.99c-3.56,0-7.16-0.58-10.9-1.71c-11.24-3.42-18.62-10.35-23.95-22.46
	C113.14,195.73,113.31,195.18,113.75,194.92z"/>
<path d="M109.29,256.84l-0.58,1.4c-1.14-0.5-2.6-0.88-3.98-0.88c-3.3,0-5.64,2.31-5.64,6.23c0,3.89,2.34,6.23,5.64,6.23
	c1.37,0,2.92-0.41,4.09-0.94l0.58,1.4c-1.43,0.79-3.04,1.14-4.82,1.14c-4.15,0-7.31-2.95-7.31-7.84c0-4.88,3.16-7.84,7.31-7.84
	C106.36,255.76,107.94,256.11,109.29,256.84z"/>
<path d="M126.13,263.59c0,4.68-3.1,7.84-7.19,7.84c-4.09,0-7.19-3.16-7.19-7.84c0-4.68,3.16-7.84,7.19-7.84
	C123.03,255.76,126.13,258.91,126.13,263.59z M124.32,263.59c0-3.92-2.28-6.23-5.38-6.23c-3.1,0-5.38,2.31-5.38,6.23
	s2.28,6.23,5.38,6.23C122.04,269.82,124.32,267.39,124.32,263.59z"/>
<path d="M142.35,249.5v21.64h-1.64v-0.73c-1.2,0.64-2.78,1.02-4.33,1.02c-3.98,0-7.34-2.72-7.34-7.84c0-5.12,3.3-7.84,7.28-7.84
	c1.58,0,3.1,0.38,4.27,0.99v-7.25H142.35z M136.59,269.82c1.49,0,2.84-0.38,4.03-0.96V258.3c-1.2-0.61-2.6-0.94-4.09-0.94
	c-3.19,0-5.67,2.08-5.67,6.23C130.86,267.74,133.41,269.82,136.59,269.82z"/>
<path d="M159.75,264.18h-11.35c0.2,3.6,2.43,5.64,5.58,5.64c1.58,0,3.25-0.29,4.62-0.88l0.53,1.43c-1.67,0.73-3.33,1.05-5.29,1.05
	c-4.21,0-7.28-2.87-7.28-7.84s3.27-7.84,6.87-7.84c3.74,0,6.37,2.87,6.37,7.25C159.81,263.39,159.81,263.94,159.75,264.18z
	 M148.41,262.66h9.65c-0.06-3.36-1.99-5.32-4.62-5.32C150.72,257.34,148.73,259.15,148.41,262.66z"/>
<path d="M166.83,267.31v10.76h-3.36v-15.38h3.16v1.9c1.43-0.99,3.66-1.93,5.56-2.19l0.58,2.95
	C170.95,265.67,168.61,266.43,166.83,267.31z"/>
<path d="M185.77,263.31l-0.82,2.46c-1.55-0.47-3.1-0.7-4.65-0.7c-1.87,0-2.75,0.7-2.75,1.67c0,0.99,0.67,1.58,3.13,2.19
	c4.36,1.08,5.96,2.43,5.96,4.74c0,3.13-2.34,4.71-6.61,4.71c-2.08,0-4.21-0.35-6.2-1.02l0.85-2.46c1.72,0.53,3.71,0.85,5.35,0.85
	c2.34,0,3.36-0.61,3.36-1.75c0-0.94-0.7-1.55-3.65-2.25c-4.01-0.96-5.38-2.37-5.38-4.82c0-2.6,2.11-4.5,5.94-4.5
	C182.23,262.4,184.05,262.72,185.77,263.31z"/>
</svg>
